<svg xmlns="http://www.w3.org/2000/svg" viewBox="0 0 64 64" width="700px" height="700px"><linearGradient id="N4TJJOeVCI9EUHtnZw7iPa" x1="31.978" x2="31.978" y1="3" y2="61" gradientUnits="userSpaceOnUse" spreadMethod="reflect"><stop offset="0" stop-color="#1a6dff"/><stop offset="1" stop-color="#c822ff"/></linearGradient><path fill="none" stroke="url(#N4TJJOeVCI9EUHtnZw7iPa)" stroke-miterlimit="10" stroke-width="2" d="M9.22,33.059 c0.166-0.471,0.065-0.957-0.058-1.394C8.942,30.879,9.248,30.08,9,29.31c0.185-0.675-0.109-1.375,0.273-2.085 c0.206-0.384-0.248-1.004-0.148-1.573c0.062-0.35,0.047-0.705,0.233-1.034c0.147-0.26,0.203-0.556,0.106-0.838 c-0.412-1.189,0.009-2.136,0.689-3.156c0.353-0.529,0.732-1.302,0.67-1.954c-0.107-1.13,0.477-1.842,1.246-2.457 c0.737-0.589,1.104-1.396,1.62-2.115c0.125-0.174,0.189-0.439,0.059-0.621c-0.333-0.467-0.232-0.965-0.179-1.46 c0.029-0.269,0.082-0.516-0.177-0.72c-0.117-0.092-0.211-0.256-0.13-0.386c0.508-0.816-0.166-1.448-0.344-2.157 c-0.318-1.265-0.904-2.472-0.897-3.806c0.002-0.328-0.096-0.724,0.348-0.854c0.434-0.128,0.896-0.164,1.291,0.131 c0.395,0.296,0.751,0.637,1.028,1.039c0.279,0.404,0.565,0.784,1.053,0.989c0.282,0.118,0.388,0.384,0.372,0.657 c-0.017,0.299,0.112,0.543,0.189,0.815c0.218,0.762,0.409,1.489,1.431,1.574c0.143,0.012,0.187,0.202,0.244,0.338 c0.262,0.628,0.484,0.684,1.109,0.336c1.859-1.036,4.213-1.656,6.132-2.572c0.111-0.053,0.237-0.109,0.355-0.108 c2.317,0.03,4.615-0.598,6.955-0.104c0.912,0.193,1.897-0.059,2.829,0.21C36.88,7.839,38.431,8.135,40,8.388 c0.998,0.161,1.432,0.749,2.181,1.351c0.382,0.307,0.8,0.401,1.197,0.595c0.228,0.112,0.45-0.006,0.527-0.252 c0.185-0.596,1.014-1.231,1.216-1.832c0.38-1.129,0.95-2.192,1.251-3.361c0.202-0.783,0.89-1.02,1.887-0.825 c0.734,0.143,0.681,0.704,0.727,1.237c0.106,1.22-0.371,2.326-0.707,3.457c-0.288,0.969-0.765,2.094-0.548,3.033 c0.141,0.611,0.89,0.981,1.4,1.436c1.18,1.052,2.473,2.028,3.337,3.345c0.655,0.998,0.976,2.163,1.091,3.343 c0.05,0.511,0.42,0.864,0.513,1.334c0.16,0.805,0.229,1.621,0.146,2.433c-0.082,0.798,0.137,1.499,0.546,2.169 c0.001,0.244,0.002,0.488,0.003,0.731c0.151,0.82,0.425,1.662,0.028,2.462c-0.674,1.358-0.904,2.855-1.567,4.228 c-0.45,0.932-0.701,1.928-1.398,2.774c-0.606,0.735-0.713,1.747-1.331,2.526c-0.381,0.481-0.918,0.883-1.085,1.511 c-0.358,0.272-0.611,0.603-0.798,1.015c-0.271,0.597-0.658,1.245-1.272,1.461c-1.521,0.536-2.239,1.906-3.393,2.812 c-0.619,0.486-1.157,0.901-1.959,1.047c-0.772,0.14-1.595,0.23-2.204,0.809c-1.207,0.124-2.33,0.475-3.341,1.13 c-0.301,0.195-0.293,0.548-0.421,0.821c-0.394,0.843-1.349,1.295-1.625,2.208c-0.048,0.159-0.196,0.313-0.186,0.462 c0.096,1.439-0.694,2.733-0.75,4.13c-0.046,1.147-0.084,2.279-0.385,3.398c-0.193,0.717-0.271,0.767-0.956,0.382 c-0.085-0.048-0.187-0.125-0.268-0.111c-0.882,0.142-0.988-0.454-1.065-1.039c-0.18-1.383-0.747-2.638-1.221-3.939 c-0.379-1.039-0.859-2.134-0.884-3.285c-0.015-0.711-0.585-1.245-0.573-1.966c0.005-0.275-0.357-0.381-0.643-0.394 c-0.374-0.017-0.758-0.049-1.123,0.009c-1.24,0.198-2.121-0.492-3.121-1.002c-0.957-0.488-1.816-1.163-2.886-1.452 c-1.301-0.351-2.456-0.98-3.421-1.872c-0.397-0.367-0.533-0.933-0.961-1.341c-0.583-0.556-1.397-0.786-1.923-1.393 c-0.158-0.182-0.432-0.3-0.523-0.501c-0.477-1.046-1.486-1.701-2.091-2.637C10.275,37.063,9.324,35.204,9.22,33.059z"/><linearGradient id="N4TJJOeVCI9EUHtnZw7iPb" x1="31" x2="31" y1="12" y2="45" gradientUnits="userSpaceOnUse" spreadMethod="reflect"><stop offset="0" stop-color="#6dc7ff"/><stop offset="1" stop-color="#e6abff"/></linearGradient><path fill="url(#N4TJJOeVCI9EUHtnZw7iPb)" d="M23.893,25.745c-0.016,1.556,0.865,2.451,1.295,3.496c0.525,1.276,1.469,2.376,1.694,3.795 c0.148,0.934,0.48,1.897,0.98,2.72c1.174,1.931,1.802,4.061,2.798,6.055c0.451,0.902,0.313,2.027,1.15,2.826 c0.112,0.107,0.053,0.366,0.313,0.363c0.237-0.002,0.283-0.202,0.345-0.359c0.338-0.854,0.782-1.691,0.964-2.573 c0.115-0.559,0.595-1.014,0.484-1.607c-0.23-1.235,0.598-2.333,0.535-3.547c-0.009-0.179,0.183-0.272,0.323-0.392 c0.503-0.431,0.865-0.935,0.809-1.612c-0.064-0.765,0.576-1.372,0.56-2.153c-0.007-0.33,0.492-0.571,0.639-0.976 c0.596-1.64,0.869-3.343,1.296-5.016c0.213-0.832,0.357-1.71,0.767-2.46c0.499-0.915,1.021-1.826,1.53-2.74 c0.934-1.678,1.204-3.526,1.59-5.341c0.158-0.742-0.226-1.25-1.023-1.418c-0.321-0.068-0.613-0.172-0.896-0.317 c-0.622-0.317-1.289-0.703-1.892-0.871c-0.706-0.196-1.461-0.254-2.201-0.541c-1.06-0.411-2.176-0.75-3.37-0.8 c-1.01-0.042-1.99-0.396-3.029-0.237c-1.736,0.267-3.445,0.607-5.128,1.102c-1.034,0.305-2.04,0.585-2.87,1.258 c-0.257,0.209-0.566,0.374-0.872,0.521c-0.74,0.355-0.886,0.724-0.4,1.346c0.553,0.708,0.773,1.501,0.883,2.34 c0.025,0.194-0.001,0.441,0.118,0.569c0.862,0.929,1.054,2.134,1.618,3.182c0.246,0.457,0.024,1.005,0.338,1.426 C23.764,24.491,23.825,25.295,23.893,25.745z"/><linearGradient id="N4TJJOeVCI9EUHtnZw7iPc" x1="43" x2="43" y1="19" y2="42" gradientUnits="userSpaceOnUse" spreadMethod="reflect"><stop offset="0" stop-color="#6dc7ff"/><stop offset="1" stop-color="#e6abff"/></linearGradient><path fill="url(#N4TJJOeVCI9EUHtnZw7iPc)" d="M38,41.913c0.325-1.481,0.978-2.844,1.518-4.248c0.386-1.005,0.933-1.964,0.933-3.097 c0-0.301,0.184-0.61,0.316-0.901c0.378-0.839,0.703-1.681,0.718-2.627c0.01-0.646,0.248-1.231,0.583-1.808 c0.718-1.235,1.355-2.503,1.864-3.857c0.448-1.191,1.05-2.329,1.426-3.562c0.231-0.756,0.208-1.569,0.573-2.289 c0.109-0.215,0.129-0.528,0.441-0.523c0.304,0.004,0.507,0.242,0.57,0.513c0.416,1.795,0.936,3.575,0.875,5.447 c-0.004,0.123-0.03,0.252-0.004,0.37c0.622,2.807-0.444,5.338-1.262,7.923c-1.035,3.271-3.287,5.495-6.072,7.314 c-0.784,0.512-1.439,1.226-2.405,1.434C38.05,41.971,38.025,41.942,38,41.913z"/><linearGradient id="N4TJJOeVCI9EUHtnZw7iPd" x1="20" x2="20" y1="20" y2="42" gradientUnits="userSpaceOnUse" spreadMethod="reflect"><stop offset="0" stop-color="#6dc7ff"/><stop offset="1" stop-color="#e6abff"/></linearGradient><path fill="url(#N4TJJOeVCI9EUHtnZw7iPd)" d="M15,30.811c0.414-2.047,0.196-4.169,0.624-6.206c0.238-1.13,0.583-2.25,1.125-3.274 c0.151-0.286,0.263-0.577,0.299-0.905c0.017-0.158-0.059-0.395,0.175-0.424c0.205-0.025,0.373,0.127,0.412,0.329 c0.222,1.152,0.958,2.153,0.786,3.43c-0.132,0.98,0.459,1.804,0.726,2.691c0.203,0.677,0.49,1.323,0.625,2.033 c0.111,0.583,0.344,1.12,0.711,1.596c0.355,0.46,0.49,1.017,0.61,1.62c0.268,1.358,0.487,2.777,1.528,3.793 c0.08,0.078,0.157,0.204,0.168,0.315c0.147,1.384,0.94,2.463,1.509,3.64c0.339,0.701,0.338,1.492,0.66,2.189 c0.129,0.28-0.06,0.454-0.327,0.306c-1.486-0.824-3.093-1.403-4.288-2.789c-0.719-0.834-1.488-1.617-2.173-2.493 c-0.656-0.839-1.099-1.822-1.701-2.698c-0.337-0.49-0.559-1.08-0.999-1.499C14.994,32.015,15.005,31.418,15,30.811z"/></svg>